<?xml version="1.0" encoding="UTF-8" standalone="no"?>
<svg
   id="visual"
   viewBox="0 0 900 99.430107"
   width="900"
   height="99.430107"
   version="1.1"
   sodipodi:docname="divider.svg"
   inkscape:version="1.1 (c4e8f9ed74, 2021-05-24)"
   xmlns:inkscape="http://www.inkscape.org/namespaces/inkscape"
   xmlns:sodipodi="http://sodipodi.sourceforge.net/DTD/sodipodi-0.dtd"
   xmlns="http://www.w3.org/2000/svg"
   xmlns:svg="http://www.w3.org/2000/svg">
  <defs
     id="defs57" />
  <sodipodi:namedview
     id="namedview55"
     pagecolor="#ffffff"
     bordercolor="#666666"
     borderopacity="1.0"
     inkscape:pageshadow="2"
     inkscape:pageopacity="0.0"
     inkscape:pagecheckerboard="0"
     showgrid="false"
     inkscape:zoom="4.1106474"
     inkscape:cx="805.59086"
     inkscape:cy="59.601317"
     inkscape:window-width="1024"
     inkscape:window-height="678"
     inkscape:window-x="0"
     inkscape:window-y="31"
     inkscape:window-maximized="1"
     inkscape:current-layer="visual" />
  <rect
     x="0"
     y="0"
     width="900"
     height="99.430107"
     fill="#047857"
     id="rect50"
     style="stroke-width:0.407083" />
  <path
     d="m 0,57.925652 15,-7 c 15,-7 45,-21 75,-27.7 30,-6.6 60,-6 90,-1.3 30,4.7 60,13.3 90,18.2 30,4.8 60,5.8 90,6 30,0.1 60,-0.5 90,-9 30,-8.5 60,-24.9 90,-28.7000004 30,-3.8 60,4.8000004 90,24.3000004 30,19.5 60,49.9 90,59.7 30,9.799998 60,-0.8 90,-12.7 30,-11.8 60,-24.8 75,-31.3 l 15,-6.5 V -121.07435 h -15 c -15,0 -45,0 -75,0 -30,0 -60,0 -90,0 -30,0 -60,0 -90,0 -30,0 -60,0 -90,0 -30,0 -60,0 -90,0 -30,0 -60,0 -90,0 -30,0 -60,0 -90,0 -30,0 -60,0 -90,0 -30,0 -60,0 -90,0 -30,0 -60,0 -75,0 H 0 Z"
     fill="#ffffff"
     stroke-linecap="round"
     stroke-linejoin="miter"
     id="path52" />
</svg>
